<svg xmlns="http://www.w3.org/2000/svg" width="494" height="494" viewBox="0 0 494 494">
<g fill="white">
<path d="M 21 0 L 21 27 L 20 28 L 0 28 L 20 28 L 21 29 L 21 56 L 20 57 L 0 57 L 20 57 L 21 58 L 21 84 L 20 85 L 0 85 L 20 85 L 21 86 L 21 113 L 20 114 L 0 114 L 20 114 L 21 115 L 21 141 L 20 142 L 0 142 L 20 142 L 21 143 L 21 170 L 20 171 L 0 171 L 20 171 L 21 172 L 21 199 L 20 200 L 0 200 L 20 200 L 21 201 L 21 227 L 20 228 L 0 228 L 20 228 L 21 229 L 21 256 L 20 257 L 0 257 L 20 257 L 21 258 L 21 284 L 20 285 L 0 285 L 20 285 L 21 286 L 21 313 L 20 314 L 0 314 L 20 314 L 21 315 L 21 342 L 20 343 L 0 343 L 20 343 L 21 344 L 21 370 L 20 371 L 0 371 L 20 371 L 21 372 L 21 399 L 20 400 L 0 400 L 20 400 L 21 401 L 21 428 L 20 429 L 0 429 L 20 429 L 21 430 L 21 456 L 20 457 L 0 457 L 20 457 L 21 458 L 21 485 L 20 486 L 0 486 L 20 486 L 21 487 L 21 493 L 21 487 L 22 486 L 49 486 L 50 487 L 50 493 L 50 487 L 51 486 L 78 486 L 79 487 L 79 493 L 79 487 L 80 486 L 106 486 L 107 487 L 107 493 L 107 487 L 108 486 L 135 486 L 136 487 L 136 493 L 136 487 L 137 486 L 163 486 L 164 487 L 164 493 L 164 487 L 165 486 L 192 486 L 193 487 L 193 493 L 193 487 L 194 486 L 221 486 L 222 487 L 222 493 L 222 487 L 223 486 L 249 486 L 250 487 L 250 493 L 250 487 L 251 486 L 278 486 L 279 487 L 279 493 L 279 487 L 280 486 L 307 486 L 308 487 L 308 493 L 308 487 L 309 486 L 335 486 L 336 487 L 336 493 L 336 487 L 337 486 L 364 486 L 365 487 L 365 493 L 365 487 L 366 486 L 392 486 L 393 487 L 393 493 L 393 487 L 394 486 L 421 486 L 422 487 L 422 493 L 422 487 L 423 486 L 450 486 L 451 487 L 451 493 L 451 487 L 452 486 L 478 486 L 479 487 L 479 493 L 479 487 L 480 486 L 493 486 L 480 486 L 479 485 L 479 458 L 480 457 L 493 457 L 480 457 L 479 456 L 479 430 L 480 429 L 493 429 L 480 429 L 479 428 L 479 401 L 480 400 L 493 400 L 480 400 L 479 399 L 479 372 L 480 371 L 493 371 L 480 371 L 479 370 L 479 344 L 480 343 L 493 343 L 480 343 L 479 342 L 479 315 L 480 314 L 493 314 L 480 314 L 479 313 L 479 286 L 480 285 L 493 285 L 480 285 L 479 284 L 479 258 L 480 257 L 493 257 L 480 257 L 479 256 L 479 229 L 480 228 L 493 228 L 480 228 L 479 227 L 479 201 L 480 200 L 493 200 L 480 200 L 479 199 L 479 172 L 480 171 L 493 171 L 480 171 L 479 170 L 479 143 L 480 142 L 493 142 L 480 142 L 479 141 L 479 115 L 480 114 L 493 114 L 480 114 L 479 113 L 479 86 L 480 85 L 493 85 L 480 85 L 479 84 L 479 58 L 480 57 L 493 57 L 480 57 L 479 56 L 479 29 L 480 28 L 493 28 L 480 28 L 479 27 L 479 0 L 479 27 L 478 28 L 452 28 L 451 27 L 451 0 L 451 27 L 450 28 L 423 28 L 422 27 L 422 0 L 422 27 L 421 28 L 394 28 L 393 27 L 393 0 L 393 27 L 392 28 L 366 28 L 365 27 L 365 0 L 365 27 L 364 28 L 337 28 L 336 27 L 336 0 L 336 27 L 335 28 L 309 28 L 308 27 L 308 0 L 308 27 L 307 28 L 280 28 L 279 27 L 279 0 L 279 27 L 278 28 L 251 28 L 250 27 L 250 0 L 250 27 L 249 28 L 223 28 L 222 27 L 222 0 L 222 27 L 221 28 L 194 28 L 193 27 L 193 0 L 193 27 L 192 28 L 165 28 L 164 27 L 164 0 L 164 27 L 163 28 L 137 28 L 136 27 L 136 0 L 136 27 L 135 28 L 108 28 L 107 27 L 107 0 L 107 27 L 106 28 L 80 28 L 79 27 L 79 0 L 79 27 L 78 28 L 51 28 L 50 27 L 50 0 L 50 27 L 49 28 L 22 28 L 21 27 Z" />
</g>
</svg>